<svg xmlns="http://www.w3.org/2000/svg" viewBox="0 0 304.091 129.316"><defs><style>.a,.g,.k,.l,.n{fill:none;}.a,.e,.f,.g,.h,.k,.l{stroke:#396ea8;}.a{stroke-linecap:round;}.a,.k{stroke-width:4px;}.b,.d{fill:#707070;}.b{font-size:20px;letter-spacing:0.081em;}.b,.c,.d{font-family:Helvetica;}.c,.e,.o{fill:#396ea8;}.c,.d{font-size:84px;letter-spacing:0.01em;}.e,.l{stroke-width:3px;}.f,.j{fill:#fff;}.f,.g,.h{stroke-width:2px;}.h,.i{fill:rgba(255,255,255,0);}.m,.o{stroke:none;}</style></defs><g transform="translate(-656.782 -40.672)"><g transform="translate(-490 25)"><line class="a" x1="1.655" y2="20.347" transform="translate(1153.845 84.5)"/><line class="a" y1="0.347" x2="113.695" transform="translate(1153.805 104.5)"/><text class="b" transform="translate(1297.219 109.022)"><tspan x="0" y="0">Manufacture</tspan></text><text class="c" transform="translate(1147.445 80.633) rotate(2)"><tspan x="0" y="0">b</tspan></text><text class="d" transform="translate(1192.873 81)"><tspan x="0" y="0">eatrice</tspan></text></g><g transform="translate(190 85.729)"><path class="e" d="M7.176,0,5.226,1.116,0,4.108v8.143l7.176,4.324L12.391,13.4l1.878-1.145V4.108L11.187,2.323,9.553,1.377Z" transform="translate(631.136 69.483) rotate(120)"/><path class="e" d="M7.176,0,0,4.108v8.143l7.177,4.324L12.391,13.4l1.878-1.145V4.108L11.187,2.323,9.553,1.377Z" transform="matrix(-0.53, 0.848, -0.848, -0.53, 597.879, 69.969)"/><g class="f" transform="matrix(-0.087, 0.996, -0.996, -0.087, 591.647, 62.526)"><ellipse class="m" cx="3.93" cy="3.93" rx="3.93" ry="3.93"/><ellipse class="n" cx="3.93" cy="3.93" rx="2.93" ry="2.93"/></g><path class="g" d="M3.518,0,2.2.879,0,2.345" transform="translate(621.684 76.397) rotate(68)"/><g class="f" transform="translate(593.852 24)"><ellipse class="m" cx="8.651" cy="8.651" rx="8.651" ry="8.651"/><ellipse class="n" cx="8.651" cy="8.651" rx="7.651" ry="7.651"/></g><g class="h" transform="translate(593.852 24)"><ellipse class="m" cx="8.651" cy="8.651" rx="8.651" ry="8.651"/><ellipse class="n" cx="8.651" cy="8.651" rx="7.651" ry="7.651"/></g><g class="i" transform="translate(597.631 48.959)"><path class="m" d="M 5.306852340698242 9.613716125488281 C 2.932042360305786 9.613716125488281 1.000002384185791 7.681665897369385 1.000002384185791 5.30685567855835 C 1.000002384185791 2.932045698165894 2.932042360305786 0.9999956488609314 5.306852340698242 0.9999956488609314 C 7.681662559509277 0.9999956488609314 9.613702774047852 2.932045698165894 9.613702774047852 5.30685567855835 C 9.613702774047852 7.681665897369385 7.681662559509277 9.613716125488281 5.306852340698242 9.613716125488281 Z"/><path class="o" d="M 5.306852340698242 1.999995231628418 C 3.483452320098877 1.999995231628418 2.000001907348633 3.483445644378662 2.000001907348633 5.30685567855835 C 2.000001907348633 7.130265712738037 3.483452320098877 8.613716125488281 5.306852340698242 8.613716125488281 C 7.130252361297607 8.613716125488281 8.613702774047852 7.130265712738037 8.613702774047852 5.30685567855835 C 8.613702774047852 3.483445644378662 7.130252361297607 1.999995231628418 5.306852340698242 1.999995231628418 M 5.306852340698242 -4.76837158203125e-06 C 8.23774242401123 -4.76837158203125e-06 10.61370277404785 2.375955581665039 10.61370277404785 5.30685567855835 C 10.61370277404785 8.23775577545166 8.23774242401123 10.61371612548828 5.306852340698242 10.61371612548828 C 2.375962257385254 10.61371612548828 1.9073486328125e-06 8.23775577545166 1.9073486328125e-06 5.30685567855835 C 1.9073486328125e-06 2.375955581665039 2.375962257385254 -4.76837158203125e-06 5.306852340698242 -4.76837158203125e-06 Z"/></g><g class="j" transform="translate(624.014 62.557) rotate(93)"><path class="m" d="M 3.744950532913208 6.320361137390137 C 2.231390476226807 6.320361137390137 1.00001049041748 5.127010822296143 1.000000476837158 3.660181045532227 C 1.000000476837158 2.193351030349731 2.231380462646484 1.000001072883606 3.744950532913208 1.000001072883606 C 5.258510589599609 1.000001072883606 6.489890575408936 2.193351030349731 6.489900588989258 3.660181045532227 C 6.489900588989258 5.127010822296143 5.258520603179932 6.320361137390137 3.744950532913208 6.320361137390137 Z"/><path class="o" d="M 3.744950532913208 2.000000953674316 C 2.782780647277832 2.000000953674316 2.000000476837158 2.7447509765625 2.000000476837158 3.660171031951904 C 2.000000476837158 4.575601100921631 2.782790660858154 5.320361137390137 3.744950532913208 5.320361137390137 C 4.707120418548584 5.320361137390137 5.489900588989258 4.575611114501953 5.489900588989258 3.660191059112549 C 5.489900588989258 2.744760990142822 4.707110404968262 2.000000953674316 3.744950532913208 2.000000953674316 M 3.744950532913208 9.5367431640625e-07 C 5.813220500946045 9.5367431640625e-07 7.489890575408936 1.638720989227295 7.489900588989258 3.660181045532227 C 7.489900588989258 5.681641101837158 5.813230514526367 7.320361137390137 3.744950532913208 7.320361137390137 C 1.676680564880371 7.320361137390137 1.049041748046875e-05 5.681641101837158 4.76837158203125e-07 3.660181045532227 C 4.76837158203125e-07 1.638720989227295 1.676670551300049 9.5367431640625e-07 3.744950532913208 9.5367431640625e-07 Z"/></g><line class="k" x1="11.363" y2="8.137" transform="translate(588.137 55.771)"/><path class="k" d="M11.341,10.855,0,0" transform="translate(606.63 55.202) rotate(-9)"/><path class="g" d="M9.143,0" transform="matrix(0.643, 0.766, -0.766, 0.643, 623.534, 66.518)"/><path class="g" d="M0,0A4.589,4.589,0,0,0,5.6,0" transform="translate(604.277 28.972) rotate(166)"/><path class="l" d="M0,0V10" transform="translate(602.5 40.771)"/></g></g></svg>