<svg xmlns="http://www.w3.org/2000/svg" viewBox="0 0 62 62">
  <defs>
    <style>
      .cls-1 {
        fill: rgba(255,255,255,0);
        stroke: #396ea8;
        stroke-width: 4px;
      }

      .cls-2 {
        fill: #396ea8;
        fill-rule: evenodd;
      }
    </style>
  </defs>
  <g id="Symbol_11_1" data-name="Symbol 11 – 1" transform="translate(-859 -5)">
    <circle id="Oval-1-Copy-5" class="cls-1" cx="29" cy="29" r="29" transform="translate(861 7)"/>
    <path id="Fill-182" class="cls-2" d="M20.611,24.26a3.394,3.394,0,0,0,3.609-3.128A3.4,3.4,0,0,0,20.611,18,3.4,3.4,0,0,0,17,21.132a3.4,3.4,0,0,0,3.611,3.128" transform="translate(858.063 3.143)"/>
    <path id="Fill-183" class="cls-2" d="M18,46.74h6.476V29H18Z" transform="translate(857.89 0.786)"/>
    <path id="Fill-184" class="cls-2" d="M35.465,36.659c0-2.034,1.013-4.024,3.436-4.024s3.019,1.989,3.019,3.975V46.3h6.447V36.214c0-7.006-4.36-8.214-7.043-8.214s-4.158.861-5.859,2.947V28.559H29V46.3h6.465Z" transform="translate(857.989 1)"/>
  </g>
</svg>
