<svg xmlns="http://www.w3.org/2000/svg" viewBox="0 0 61 61">
  <defs>
    <style>
      .cls-1 {
        fill: #1085e4;
        stroke: #1085e4;
        stroke-width: 3px;
      }

      .cls-2 {
        fill: #fff;
      }
    </style>
  </defs>
  <g id="Symbol_18_1" data-name="Symbol 18 – 1" transform="translate(-1019.5 -5808.028)">
    <path id="Oval-1-Copy-5" class="cls-1" d="M29,0A29,29,0,1,1,0,29,29,29,0,0,1,29,0Z" transform="translate(1021 5809.528)"/>
    <path id="ic_location_on_24px" class="cls-2" d="M16.019,2A11.293,11.293,0,0,0,5,13.564c0,8.673,11.019,21.476,11.019,21.476s11.019-12.8,11.019-21.476A11.293,11.293,0,0,0,16.019,2Zm0,15.694a4.038,4.038,0,0,1-3.935-4.13,4.038,4.038,0,0,1,3.935-4.13,4.038,4.038,0,0,1,3.935,4.13A4.038,4.038,0,0,1,16.019,17.694Z" transform="translate(1034 5820)"/>
  </g>
</svg>
