<svg xmlns="http://www.w3.org/2000/svg" viewBox="0 0 58 58">
  <defs>
    <style>
      .cls-1, .cls-4 {
        fill: #1085e4;
      }

      .cls-2 {
        fill: #fff;
      }

      .cls-3, .cls-4 {
        stroke: none;
      }
    </style>
  </defs>
  <g id="Symbol_16_1" data-name="Symbol 16 – 1" transform="translate(-401 -5977.179)">
    <g id="Path_1305" data-name="Path 1305" class="cls-1" transform="translate(401 5977.179)">
      <path class="cls-3" d="M 29 56.5 C 25.2868595123291 56.5 21.68559074401855 55.77310943603516 18.29622077941895 54.33953094482422 C 15.02171993255615 52.95452880859375 12.08059978485107 50.97146987915039 9.554559707641602 48.44543838500977 C 7.028530120849609 45.91939926147461 5.045470237731934 42.97827911376953 3.660470008850098 39.70378112792969 C 2.226890087127686 36.31441116333008 1.5 32.71313858032227 1.5 29 C 1.5 25.2868595123291 2.226890087127686 21.68559074401855 3.660470008850098 18.29622077941895 C 5.045470237731934 15.02171993255615 7.028530120849609 12.08059978485107 9.554559707641602 9.554559707641602 C 12.08059978485107 7.028530120849609 15.02171993255615 5.045470237731934 18.29622077941895 3.660470008850098 C 21.68559074401855 2.226890087127686 25.2868595123291 1.5 29 1.5 C 32.71313858032227 1.5 36.31441116333008 2.226890087127686 39.70378112792969 3.660470008850098 C 42.97827911376953 5.045470237731934 45.91939926147461 7.028530120849609 48.44543838500977 9.554559707641602 C 50.97146987915039 12.08059978485107 52.95452880859375 15.02171993255615 54.33953094482422 18.29622077941895 C 55.77310943603516 21.68559074401855 56.5 25.2868595123291 56.5 29 C 56.5 32.71313858032227 55.77310943603516 36.31441116333008 54.33953094482422 39.70378112792969 C 52.95452880859375 42.97827911376953 50.97146987915039 45.91939926147461 48.44543838500977 48.44543838500977 C 45.91939926147461 50.97146987915039 42.97827911376953 52.95452880859375 39.70378112792969 54.33953094482422 C 36.31441116333008 55.77310943603516 32.71313858032227 56.5 29 56.5 Z"/>
      <path class="cls-4" d="M 29 3 C 25.48870086669922 3 22.08401870727539 3.687019348144531 18.88055038452148 5.041980743408203 C 15.78483963012695 6.351348876953125 13.00399017333984 8.226459503173828 10.61521911621094 10.61521911621094 C 8.226459503173828 13.00399017333984 6.351348876953125 15.78483963012695 5.041980743408203 18.88055038452148 C 3.687019348144531 22.08401870727539 3 25.48870086669922 3 29 C 3 32.51129913330078 3.687019348144531 35.91597747802734 5.041980743408203 39.11944961547852 C 6.351348876953125 42.21516036987305 8.226459503173828 44.99600982666016 10.61521911621094 47.38478088378906 C 13.00399017333984 49.77354049682617 15.78483963012695 51.64865112304688 18.88055038452148 52.9580192565918 C 22.08401870727539 54.31298065185547 25.48870086669922 55 29 55 C 32.51129913330078 55 35.91597747802734 54.31298065185547 39.11944961547852 52.9580192565918 C 42.21516036987305 51.64865112304688 44.99600982666016 49.77354049682617 47.38478088378906 47.38478088378906 C 49.77354049682617 44.99600982666016 51.64865112304688 42.21516036987305 52.9580192565918 39.11944961547852 C 54.31298065185547 35.91597747802734 55 32.51129913330078 55 29 C 55 25.48870086669922 54.31298065185547 22.08401870727539 52.9580192565918 18.88055038452148 C 51.64865112304688 15.78483963012695 49.77354049682617 13.00399017333984 47.38478088378906 10.61521911621094 C 44.99600982666016 8.226459503173828 42.21516036987305 6.351348876953125 39.11944961547852 5.041980743408203 C 35.91597747802734 3.687019348144531 32.51129913330078 3 29 3 M 29 0 C 45.01625823974609 0 58 12.98374176025391 58 29 C 58 45.01625823974609 45.01625823974609 58 29 58 C 12.98374176025391 58 0 45.01625823974609 0 29 C 0 12.98374176025391 12.98374176025391 0 29 0 Z"/>
    </g>
    <path id="ic_call_24px" class="cls-2" d="M8.084,15.068A22.5,22.5,0,0,0,17.34,25.277l3.09-3.408a1.306,1.306,0,0,1,1.433-.372,14.662,14.662,0,0,0,5.014.883,1.487,1.487,0,0,1,1.4,1.549v5.407a1.487,1.487,0,0,1-1.4,1.549C13.688,30.886,3,19.1,3,4.549A1.487,1.487,0,0,1,4.4,3H9.32a1.487,1.487,0,0,1,1.4,1.549,19.261,19.261,0,0,0,.8,5.531,1.669,1.669,0,0,1-.351,1.58Z" transform="translate(416.21 5988.798)"/>
  </g>
</svg>
