<svg xmlns="http://www.w3.org/2000/svg" viewBox="0 0 58 58">
  <defs>
    <style>
      .cls-1 {
        fill: rgba(255,255,255,0);
        stroke: #396ea8;
        stroke-width: 4px;
      }

      .cls-2 {
        fill: #396ea8;
      }

      .cls-3 {
        stroke: none;
      }

      .cls-4 {
        fill: none;
      }
    </style>
  </defs>
  <g id="Symbol_13_1" data-name="Symbol 13 – 1" transform="translate(-1024 -7)">
    <g id="Ellipse_2" data-name="Ellipse 2" class="cls-1" transform="translate(1024 7)">
      <circle class="cls-3" cx="29" cy="29" r="29"/>
      <circle class="cls-4" cx="29" cy="29" r="27"/>
    </g>
    <path id="ic_call_24px" class="cls-2" d="M8.084,15.068A22.5,22.5,0,0,0,17.34,25.277l3.09-3.408a1.306,1.306,0,0,1,1.433-.372,14.662,14.662,0,0,0,5.014.883,1.487,1.487,0,0,1,1.4,1.549v5.407a1.487,1.487,0,0,1-1.4,1.549C13.688,30.886,3,19.1,3,4.549A1.487,1.487,0,0,1,4.4,3H9.32a1.487,1.487,0,0,1,1.4,1.549,19.261,19.261,0,0,0,.8,5.531,1.669,1.669,0,0,1-.351,1.58Z" transform="translate(1037.21 19)"/>
  </g>
</svg>
